<svg width="166" height="189" viewBox="0 0 166 189" fill="none" xmlns="http://www.w3.org/2000/svg">
<path d="M166 137.435H160.283V143.26H166V137.435Z" fill="#A77CFA"/>
<path d="M166 131.718H160.283V137.435H166V131.718Z" fill="#A77CFA"/>
<path d="M160.284 143.152H154.567V148.87H160.284V143.152Z" fill="#A77CFA"/>
<path d="M160.284 137.435H154.567V143.26H160.284V137.435Z" fill="#7E48E4"/>
<path d="M160.284 131.718H154.567V137.435H160.284V131.718Z" fill="#7E48E4"/>
<path d="M160.284 125.892H154.567V131.61H160.284V125.892Z" fill="#A77CFA"/>
<path d="M154.567 125.892H148.85V131.61H154.567V125.892Z" fill="#A77CFA"/>
<path d="M154.567 120.175H148.85V125.892H154.567V120.175Z" fill="#A77CFA"/>
<path d="M154.567 114.457H148.85V120.175H154.567V114.457Z" fill="#D6C9EF"/>
<path d="M154.567 108.74H148.85V114.457H154.567V108.74Z" fill="#7A46DB"/>
<path d="M154.567 103.022H148.85V108.74H154.567V103.022Z" fill="#CBB1FC"/>
<path d="M154.567 97.3048H148.85V103.022H154.567V97.3048Z" fill="#CBB1FC"/>
<path d="M154.567 91.5873H148.85V97.3047H154.567V91.5873Z" fill="#CBB1FC"/>
<path d="M154.567 85.8699H148.85V91.5873H154.567V85.8699Z" fill="#CBB1FC"/>
<path d="M154.567 80.1523H148.85V85.8698H154.567V80.1523Z" fill="#CBB1FC"/>
<path d="M148.85 125.892H143.133V131.61H148.85V125.892Z" fill="#7E48E4"/>
<path d="M148.85 120.175H143.133V125.892H148.85V120.175Z" fill="#A77CFA"/>
<path d="M148.85 108.74H143.133V114.457H148.85V108.74Z" fill="#7A46DB"/>
<path d="M148.85 103.022H143.133V108.74H148.85V103.022Z" fill="#8351E3"/>
<path d="M148.85 97.3048H143.133V103.022H148.85V97.3048Z" fill="#8351E3"/>
<path d="M148.85 91.5873H143.133V97.3047H148.85V91.5873Z" fill="#7A46DB"/>
<path d="M148.85 85.8699H143.133V91.5873H148.85V85.8699Z" fill="#D6C9EF"/>
<path d="M143.133 125.892H137.417V131.61H143.133V125.892Z" fill="#A77CFA"/>
<path d="M143.133 120.175H137.417V125.892H143.133V120.175Z" fill="#BA9AF6"/>
<path d="M143.133 114.457H137.417V120.175H143.133V114.457Z" fill="#D6C9EF"/>
<path d="M143.133 108.74H137.417V114.457H143.133V108.74Z" fill="#8E64DE"/>
<path d="M143.133 103.022H137.417V108.74H143.133V103.022Z" fill="#8E64DE"/>
<path d="M143.133 97.3048H137.417V103.022H143.133V97.3048Z" fill="#8E64DE"/>
<path d="M143.133 91.5873H137.417V97.3047H143.133V91.5873Z" fill="#8E64DE"/>
<path d="M143.133 85.8699H137.417V91.5873H143.133V85.8699Z" fill="#D6C9EF"/>
<path d="M143.133 80.1523H137.417V85.8698H143.133V80.1523Z" fill="#7A46DB"/>
<path d="M143.133 74.4349H137.417V80.1524H143.133V74.4349Z" fill="#7A46DB"/>
<path d="M137.416 143.152H131.7V148.87H137.416V143.152Z" fill="#A77CFA"/>
<path d="M137.416 137.435H131.7V143.26H137.416V137.435Z" fill="#7E48E4"/>
<path d="M137.416 131.718H131.7V137.435H137.416V131.718Z" fill="#7E48E4"/>
<path d="M137.416 125.892H131.7V131.61H137.416V125.892Z" fill="#BA9AF6"/>
<path d="M137.416 80.1523H131.7V85.8698H137.416V80.1523Z" fill="#8E64DE"/>
<path d="M137.416 74.4349H131.7V80.1524H137.416V74.4349Z" fill="#7A46DB"/>
<path d="M137.416 68.7175H131.7V74.435H137.416V68.7175Z" fill="#7A46DB"/>
<path d="M131.7 183.282H125.983V189H131.7V183.282Z" fill="#7A46DB"/>
<path d="M131.7 137.435H125.983V143.26H131.7V137.435Z" fill="#A77CFA"/>
<path d="M131.7 131.718H125.983V137.435H131.7V131.718Z" fill="#BA9AF6"/>
<path d="M131.7 74.4349H125.983V80.1524H131.7V74.4349Z" fill="#8E64DE"/>
<path d="M131.7 68.7175H125.983V74.435H131.7V68.7175Z" fill="#7A46DB"/>
<path d="M131.7 63H125.983V68.7175H131.7V63Z" fill="#CBB1FC"/>
<path d="M131.7 22.8699H125.983V28.5873H131.7V22.8699Z" fill="#8351E3"/>
<path d="M131.7 17.1523H125.983V22.8698H131.7V17.1523Z" fill="#D6C9EF"/>
<path d="M131.7 11.4349H125.983V17.1524H131.7V11.4349Z" fill="#D6C9EF"/>
<path d="M131.7 5.71741H125.983V11.4349H131.7V5.71741Z" fill="#D6C9EF"/>
<path d="M131.7 0H125.983V5.71747H131.7V0Z" fill="#D6C9EF"/>
<path d="M125.983 183.282H120.267V189H125.983V183.282Z" fill="#7A46DB"/>
<path d="M125.983 177.565H120.267V183.283H125.983V177.565Z" fill="#7A46DB"/>
<path d="M125.983 68.7175H120.267V74.435H125.983V68.7175Z" fill="#8E64DE"/>
<path d="M125.983 63H120.267V68.7175H125.983V63Z" fill="#7A46DB"/>
<path d="M125.983 57.2825H120.267V62.9999H125.983V57.2825Z" fill="#CBB1FC"/>
<path d="M125.983 28.5873H120.267V34.3047H125.983V28.5873Z" fill="#8351E3"/>
<path d="M125.983 22.8699H120.267V28.5873H125.983V22.8699Z" fill="#8351E3"/>
<path d="M125.983 17.1523H120.267V22.8698H125.983V17.1523Z" fill="#8351E3"/>
<path d="M120.266 183.282H114.549V189H120.266V183.282Z" fill="#8E64DE"/>
<path d="M120.266 177.565H114.549V183.283H120.266V177.565Z" fill="#7A46DB"/>
<path d="M120.266 154.587H114.549V160.305H120.266V154.587Z" fill="#8E64DE"/>
<path d="M120.266 148.87H114.549V154.587H120.266V148.87Z" fill="#8E64DE"/>
<path d="M120.266 68.7175H114.549V74.435H120.266V68.7175Z" fill="#D6C9EF"/>
<path d="M120.266 63H114.549V68.7175H120.266V63Z" fill="#D6C9EF"/>
<path d="M120.266 40.0222H114.549V45.7397H120.266V40.0222Z" fill="#7E48E4"/>
<path d="M120.266 34.3048H114.549V40.0223H120.266V34.3048Z" fill="#A77CFA"/>
<path d="M120.266 28.5873H114.549V34.3047H120.266V28.5873Z" fill="#7A46DB"/>
<path d="M120.266 22.8699H114.549V28.5873H120.266V22.8699Z" fill="#A77CFA"/>
<path d="M120.266 17.1523H114.549V22.8698H120.266V17.1523Z" fill="#7A46DB"/>
<path d="M120.266 11.4349H114.549V17.1524H120.266V11.4349Z" fill="#A77CFA"/>
<path d="M120.266 5.71741H114.549V11.4349H120.266V5.71741Z" fill="#A77CFA"/>
<path d="M114.55 183.282H108.833V189H114.55V183.282Z" fill="#7A46DB"/>
<path d="M114.55 177.565H108.833V183.283H114.55V177.565Z" fill="#7A46DB"/>
<path d="M114.55 171.848H108.833V177.565H114.55V171.848Z" fill="#A77CFA"/>
<path d="M114.55 166.13H108.833V171.848H114.55V166.13Z" fill="#A77CFA"/>
<path d="M114.55 160.413H108.833V166.13H114.55V160.413Z" fill="#7E48E4"/>
<path d="M114.55 154.587H108.833V160.305H114.55V154.587Z" fill="#8E64DE"/>
<path d="M114.55 148.87H108.833V154.587H114.55V148.87Z" fill="#7A46DB"/>
<path d="M114.55 143.152H108.833V148.87H114.55V143.152Z" fill="#A77CFA"/>
<path d="M114.55 137.435H108.833V143.26H114.55V137.435Z" fill="#7E48E4"/>
<path d="M114.55 131.718H108.833V137.435H114.55V131.718Z" fill="#7A46DB"/>
<path d="M114.55 125.892H108.833V131.61H114.55V125.892Z" fill="#7A46DB"/>
<path d="M114.55 120.175H108.833V125.892H114.55V120.175Z" fill="#7A46DB"/>
<path d="M114.55 97.3048H108.833V103.022H114.55V97.3048Z" fill="#A77CFA"/>
<path d="M114.55 91.5873H108.833V97.3047H114.55V91.5873Z" fill="#A77CFA"/>
<path d="M114.55 85.8699H108.833V91.5873H114.55V85.8699Z" fill="#8351E3"/>
<path d="M114.55 80.1523H108.833V85.8698H114.55V80.1523Z" fill="#A77CFA"/>
<path d="M114.55 74.4349H108.833V80.1524H114.55V74.4349Z" fill="#8351E3"/>
<path d="M114.55 68.7175H108.833V74.435H114.55V68.7175Z" fill="#A77CFA"/>
<path d="M114.55 63H108.833V68.7175H114.55V63Z" fill="#A77CFA"/>
<path d="M114.55 45.7397H108.833V51.5651H114.55V45.7397Z" fill="#7E48E4"/>
<path d="M114.55 40.0222H108.833V45.7397H114.55V40.0222Z" fill="#7E48E4"/>
<path d="M114.55 34.3048H108.833V40.0223H114.55V34.3048Z" fill="#998FD3"/>
<path d="M114.55 28.5873H108.833V34.3047H114.55V28.5873Z" fill="#998FD3"/>
<path d="M114.55 22.8699H108.833V28.5873H114.55V22.8699Z" fill="#998FD3"/>
<path d="M114.55 17.1523H108.833V22.8698H114.55V17.1523Z" fill="#998FD3"/>
<path d="M114.55 11.4349H108.833V17.1524H114.55V11.4349Z" fill="#D5CFF9"/>
<path d="M114.55 5.71741H108.833V11.4349H114.55V5.71741Z" fill="#A77CFA"/>
<path d="M114.55 0H108.833V5.71747H114.55V0Z" fill="#BA9AF6"/>
<path d="M108.725 183.282H103.008V189H108.725V183.282Z" fill="#7A46DB"/>
<path d="M108.725 177.565H103.008V183.283H108.725V177.565Z" fill="#7A46DB"/>
<path d="M108.725 171.848H103.008V177.565H108.725V171.848Z" fill="#7E48E4"/>
<path d="M108.725 166.13H103.008V171.848H108.725V166.13Z" fill="#7E48E4"/>
<path d="M108.725 160.413H103.008V166.13H108.725V160.413Z" fill="#7E48E4"/>
<path d="M108.725 154.587H103.008V160.305H108.725V154.587Z" fill="#8E64DE"/>
<path d="M108.725 148.87H103.008V154.587H108.725V148.87Z" fill="#7A46DB"/>
<path d="M108.725 143.152H103.008V148.87H108.725V143.152Z" fill="#7E48E4"/>
<path d="M108.725 137.435H103.008V143.26H108.725V137.435Z" fill="#7E48E4"/>
<path d="M108.725 131.718H103.008V137.435H108.725V131.718Z" fill="#8E64DE"/>
<path d="M108.725 125.892H103.008V131.61H108.725V125.892Z" fill="#8351E3"/>
<path d="M108.725 120.175H103.008V125.892H108.725V120.175Z" fill="#8E64DE"/>
<path d="M108.725 103.022H103.008V108.74H108.725V103.022Z" fill="#A77CFA"/>
<path d="M108.725 97.3048H103.008V103.022H108.725V97.3048Z" fill="#A77CFA"/>
<path d="M108.725 91.5873H103.008V97.3047H108.725V91.5873Z" fill="#8B59E9"/>
<path d="M108.725 85.8699H103.008V91.5873H108.725V85.8699Z" fill="#8351E3"/>
<path d="M108.725 80.1523H103.008V85.8698H108.725V80.1523Z" fill="#8B59E9"/>
<path d="M108.725 74.4349H103.008V80.1524H108.725V74.4349Z" fill="#8351E3"/>
<path d="M108.725 68.7175H103.008V74.435H108.725V68.7175Z" fill="#A77CFA"/>
<path d="M108.725 63H103.008V68.7175H108.725V63Z" fill="#A77CFA"/>
<path d="M108.725 57.2825H103.008V62.9999H108.725V57.2825Z" fill="#BA9AF6"/>
<path d="M108.725 45.7397H103.008V51.5651H108.725V45.7397Z" fill="#7E48E4"/>
<path d="M108.725 40.0222H103.008V45.7397H108.725V40.0222Z" fill="#998FD3"/>
<path d="M108.725 34.3048H103.008V40.0223H108.725V34.3048Z" fill="#998FD3"/>
<path d="M108.725 28.5873H103.008V34.3047H108.725V28.5873Z" fill="#D5CFF9"/>
<path d="M108.725 22.8699H103.008V28.5873H108.725V22.8699Z" fill="#D5CFF9"/>
<path d="M108.725 17.1523H103.008V22.8698H108.725V17.1523Z" fill="white"/>
<path d="M108.725 11.4349H103.008V17.1524H108.725V11.4349Z" fill="#D5CFF9"/>
<path d="M108.725 5.71741H103.008V11.4349H108.725V5.71741Z" fill="#E9E6FE"/>
<path d="M108.725 0H103.008V5.71747H108.725V0Z" fill="#BA9AF6"/>
<path d="M103.008 183.282H97.2915V189H103.008V183.282Z" fill="#8E64DE"/>
<path d="M103.008 177.565H97.2915V183.283H103.008V177.565Z" fill="#7A46DB"/>
<path d="M103.008 154.587H97.2915V160.305H103.008V154.587Z" fill="#8E64DE"/>
<path d="M103.008 148.87H97.2915V154.587H103.008V148.87Z" fill="#8E64DE"/>
<path d="M103.008 131.718H97.2915V137.435H103.008V131.718Z" fill="#D6C9EF"/>
<path d="M103.008 120.175H97.2915V125.892H103.008V120.175Z" fill="#D6C9EF"/>
<path d="M103.008 103.022H97.2915V108.74H103.008V103.022Z" fill="#A77CFA"/>
<path d="M103.008 97.3048H97.2915V103.022H103.008V97.3048Z" fill="#8B59E9"/>
<path d="M103.008 91.5873H97.2915V97.3047H103.008V91.5873Z" fill="#8B59E9"/>
<path d="M103.008 85.8699H97.2915V91.5873H103.008V85.8699Z" fill="#6C32D8"/>
<path d="M103.008 80.1523H97.2915V85.8698H103.008V80.1523Z" fill="#6C32D8"/>
<path d="M103.008 74.4349H97.2915V80.1524H103.008V74.4349Z" fill="#6C32D8"/>
<path d="M103.008 68.7175H97.2915V74.435H103.008V68.7175Z" fill="#8B59E9"/>
<path d="M103.008 63H97.2915V68.7175H103.008V63Z" fill="#A77CFA"/>
<path d="M103.008 57.2825H97.2915V62.9999H103.008V57.2825Z" fill="#BA9AF6"/>
<path d="M103.008 51.5651H97.2915V57.2825H103.008V51.5651Z" fill="#D6C9EF"/>
<path d="M103.008 45.7397H97.2915V51.5651H103.008V45.7397Z" fill="#7E48E4"/>
<path d="M103.008 40.0222H97.2915V45.7397H103.008V40.0222Z" fill="#998FD3"/>
<path d="M103.008 34.3048H97.2915V40.0223H103.008V34.3048Z" fill="#D5CFF9"/>
<path d="M103.008 28.5873H97.2915V34.3047H103.008V28.5873Z" fill="#D5CFF9"/>
<path d="M103.008 22.8699H97.2915V28.5873H103.008V22.8699Z" fill="#D5CFF9"/>
<path d="M103.008 17.1523H97.2915V22.8698H103.008V17.1523Z" fill="#D5CFF9"/>
<path d="M103.008 11.4349H97.2915V17.1524H103.008V11.4349Z" fill="white"/>
<path d="M103.008 5.71741H97.2915V11.4349H103.008V5.71741Z" fill="#E9E6FE"/>
<path d="M103.008 0H97.2915V5.71747H103.008V0Z" fill="#BA9AF6"/>
<path d="M97.2919 183.282H91.5752V189H97.2919V183.282Z" fill="#7A46DB"/>
<path d="M97.2919 177.565H91.5752V183.283H97.2919V177.565Z" fill="#7A46DB"/>
<path d="M97.2919 131.718H91.5752V137.435H97.2919V131.718Z" fill="#7E48E4"/>
<path d="M97.2919 125.892H91.5752V131.61H97.2919V125.892Z" fill="#A77CFA"/>
<path d="M97.2919 120.175H91.5752V125.892H97.2919V120.175Z" fill="#A77CFA"/>
<path d="M97.2919 103.022H91.5752V108.74H97.2919V103.022Z" fill="#8B59E9"/>
<path d="M97.2919 97.3048H91.5752V103.022H97.2919V97.3048Z" fill="#8B59E9"/>
<path d="M97.2919 91.5873H91.5752V97.3047H97.2919V91.5873Z" fill="#6C32D8"/>
<path d="M97.2919 85.8699H91.5752V91.5873H97.2919V85.8699Z" fill="#CBAFFF"/>
<path d="M97.2919 80.1523H91.5752V85.8698H97.2919V80.1523Z" fill="#CBAFFF"/>
<path d="M97.2919 74.4349H91.5752V80.1524H97.2919V74.4349Z" fill="#CBAFFF"/>
<path d="M97.2919 68.7175H91.5752V74.435H97.2919V68.7175Z" fill="#6C32D8"/>
<path d="M97.2919 63H91.5752V68.7175H97.2919V63Z" fill="#A77CFA"/>
<path d="M97.2919 57.2825H91.5752V62.9999H97.2919V57.2825Z" fill="#BA9AF6"/>
<path d="M97.2919 45.7397H91.5752V51.5651H97.2919V45.7397Z" fill="#7E48E4"/>
<path d="M97.2919 40.0222H91.5752V45.7397H97.2919V40.0222Z" fill="#998FD3"/>
<path d="M97.2919 34.3048H91.5752V40.0223H97.2919V34.3048Z" fill="#D5CFF9"/>
<path d="M97.2919 28.5873H91.5752V34.3047H97.2919V28.5873Z" fill="white"/>
<path d="M97.2919 22.8699H91.5752V28.5873H97.2919V22.8699Z" fill="#D5CFF9"/>
<path d="M97.2919 17.1523H91.5752V22.8698H97.2919V17.1523Z" fill="white"/>
<path d="M97.2919 11.4349H91.5752V17.1524H97.2919V11.4349Z" fill="#D5CFF9"/>
<path d="M97.2919 5.71741H91.5752V11.4349H97.2919V5.71741Z" fill="#E9E6FE"/>
<path d="M97.2919 0H91.5752V5.71747H97.2919V0Z" fill="#BA9AF6"/>
<path d="M91.5751 183.282H85.8584V189H91.5751V183.282Z" fill="#7A46DB"/>
<path d="M91.5751 131.718H85.8584V137.435H91.5751V131.718Z" fill="#7E48E4"/>
<path d="M91.5751 125.892H85.8584V131.61H91.5751V125.892Z" fill="#A77CFA"/>
<path d="M91.5751 120.175H85.8584V125.892H91.5751V120.175Z" fill="#A77CFA"/>
<path d="M91.5751 114.457H85.8584V120.175H91.5751V114.457Z" fill="#7E48E4"/>
<path d="M91.5751 108.74H85.8584V114.457H91.5751V108.74Z" fill="#D6C9EF"/>
<path d="M91.5751 103.022H85.8584V108.74H91.5751V103.022Z" fill="#8B59E9"/>
<path d="M91.5751 97.3048H85.8584V103.022H91.5751V97.3048Z" fill="#6C32D8"/>
<path d="M91.5751 91.5873H85.8584V97.3047H91.5751V91.5873Z" fill="#CBAFFF"/>
<path d="M91.5751 85.8699H85.8584V91.5873H91.5751V85.8699Z" fill="#CBAFFF"/>
<path d="M91.5751 80.1523H85.8584V85.8698H91.5751V80.1523Z" fill="#998FD3"/>
<path d="M91.5751 74.4349H85.8584V80.1524H91.5751V74.4349Z" fill="#998FD3"/>
<path d="M91.5751 68.7175H85.8584V74.435H91.5751V68.7175Z" fill="#D5CFF9"/>
<path d="M91.5751 63H85.8584V68.7175H91.5751V63Z" fill="#6C32D8"/>
<path d="M91.5751 57.2825H85.8584V62.9999H91.5751V57.2825Z" fill="#BA9AF6"/>
<path d="M91.5751 51.5651H85.8584V57.2825H91.5751V51.5651Z" fill="#D6C9EF"/>
<path d="M91.5751 45.7397H85.8584V51.5651H91.5751V45.7397Z" fill="#7E48E4"/>
<path d="M91.5751 40.0222H85.8584V45.7397H91.5751V40.0222Z" fill="#998FD3"/>
<path d="M91.5751 34.3048H85.8584V40.0223H91.5751V34.3048Z" fill="white"/>
<path d="M91.5751 28.5873H85.8584V34.3047H91.5751V28.5873Z" fill="#D5CFF9"/>
<path d="M91.5751 22.8699H85.8584V28.5873H91.5751V22.8699Z" fill="#D5CFF9"/>
<path d="M91.5751 17.1523H85.8584V22.8698H91.5751V17.1523Z" fill="#D5CFF9"/>
<path d="M91.5751 11.4349H85.8584V17.1524H91.5751V11.4349Z" fill="#D5CFF9"/>
<path d="M91.5751 5.71741H85.8584V11.4349H91.5751V5.71741Z" fill="#E9E6FE"/>
<path d="M91.5751 0H85.8584V5.71747H91.5751V0Z" fill="#BA9AF6"/>
<path d="M85.8588 131.718H80.1421V137.435H85.8588V131.718Z" fill="#7E48E4"/>
<path d="M85.8588 125.892H80.1421V131.61H85.8588V125.892Z" fill="#A77CFA"/>
<path d="M85.8588 120.175H80.1421V125.892H85.8588V120.175Z" fill="#A77CFA"/>
<path d="M85.8588 114.457H80.1421V120.175H85.8588V114.457Z" fill="#7E48E4"/>
<path d="M85.8588 103.022H80.1421V108.74H85.8588V103.022Z" fill="#8B59E9"/>
<path d="M85.8588 97.3048H80.1421V103.022H85.8588V97.3048Z" fill="#6C32D8"/>
<path d="M85.8588 91.5873H80.1421V97.3047H85.8588V91.5873Z" fill="#CBAFFF"/>
<path d="M85.8588 85.8699H80.1421V91.5873H85.8588V85.8699Z" fill="#998FD3"/>
<path d="M85.8588 80.1523H80.1421V85.8698H85.8588V80.1523Z" fill="#D5CFF9"/>
<path d="M85.8588 74.4349H80.1421V80.1524H85.8588V74.4349Z" fill="#D5CFF9"/>
<path d="M85.8588 68.7175H80.1421V74.435H85.8588V68.7175Z" fill="#D5CFF9"/>
<path d="M85.8588 63H80.1421V68.7175H85.8588V63Z" fill="#6C32D8"/>
<path d="M85.8588 57.2825H80.1421V62.9999H85.8588V57.2825Z" fill="#BA9AF6"/>
<path d="M85.8588 51.5651H80.1421V57.2825H85.8588V51.5651Z" fill="#D6C9EF"/>
<path d="M85.8588 45.7397H80.1421V51.5651H85.8588V45.7397Z" fill="#7E48E4"/>
<path d="M85.8588 40.0222H80.1421V45.7397H85.8588V40.0222Z" fill="#998FD3"/>
<path d="M85.8588 34.3048H80.1421V40.0223H85.8588V34.3048Z" fill="white"/>
<path d="M85.8588 28.5873H80.1421V34.3047H85.8588V28.5873Z" fill="#D5CFF9"/>
<path d="M85.8588 22.8699H80.1421V28.5873H85.8588V22.8699Z" fill="#D5CFF9"/>
<path d="M85.8588 17.1523H80.1421V22.8698H85.8588V17.1523Z" fill="#D5CFF9"/>
<path d="M85.8588 11.4349H80.1421V17.1524H85.8588V11.4349Z" fill="#D5CFF9"/>
<path d="M85.8588 5.71741H80.1421V11.4349H85.8588V5.71741Z" fill="#E9E6FE"/>
<path d="M85.8588 0H80.1421V5.71747H85.8588V0Z" fill="#BA9AF6"/>
<path d="M80.1415 183.282H74.4248V189H80.1415V183.282Z" fill="#7A46DB"/>
<path d="M80.1415 131.718H74.4248V137.435H80.1415V131.718Z" fill="#7E48E4"/>
<path d="M80.1415 125.892H74.4248V131.61H80.1415V125.892Z" fill="#A77CFA"/>
<path d="M80.1415 120.175H74.4248V125.892H80.1415V120.175Z" fill="#A77CFA"/>
<path d="M80.1415 114.457H74.4248V120.175H80.1415V114.457Z" fill="#7E48E4"/>
<path d="M80.1415 108.74H74.4248V114.457H80.1415V108.74Z" fill="#D6C9EF"/>
<path d="M80.1415 103.022H74.4248V108.74H80.1415V103.022Z" fill="#A77CFA"/>
<path d="M80.1415 97.3048H74.4248V103.022H80.1415V97.3048Z" fill="#6C32D8"/>
<path d="M80.1415 91.5873H74.4248V97.3047H80.1415V91.5873Z" fill="#CBAFFF"/>
<path d="M80.1415 85.8699H74.4248V91.5873H80.1415V85.8699Z" fill="#998FD3"/>
<path d="M80.1415 80.1523H74.4248V85.8698H80.1415V80.1523Z" fill="#D5CFF9"/>
<path d="M80.1415 74.4349H74.4248V80.1524H80.1415V74.4349Z" fill="white"/>
<path d="M80.1415 68.7175H74.4248V74.435H80.1415V68.7175Z" fill="#D5CFF9"/>
<path d="M80.1415 63H74.4248V68.7175H80.1415V63Z" fill="#6C32D8"/>
<path d="M80.1415 57.2825H74.4248V62.9999H80.1415V57.2825Z" fill="#BA9AF6"/>
<path d="M80.1415 51.5651H74.4248V57.2825H80.1415V51.5651Z" fill="#D6C9EF"/>
<path d="M80.1415 45.7397H74.4248V51.5651H80.1415V45.7397Z" fill="#7E48E4"/>
<path d="M80.1415 40.0222H74.4248V45.7397H80.1415V40.0222Z" fill="#998FD3"/>
<path d="M80.1415 34.3048H74.4248V40.0223H80.1415V34.3048Z" fill="white"/>
<path d="M80.1415 28.5873H74.4248V34.3047H80.1415V28.5873Z" fill="#D5CFF9"/>
<path d="M80.1415 22.8699H74.4248V28.5873H80.1415V22.8699Z" fill="#D5CFF9"/>
<path d="M80.1415 17.1523H74.4248V22.8698H80.1415V17.1523Z" fill="#D5CFF9"/>
<path d="M80.1415 11.4349H74.4248V17.1524H80.1415V11.4349Z" fill="#D5CFF9"/>
<path d="M80.1415 5.71741H74.4248V11.4349H80.1415V5.71741Z" fill="#E9E6FE"/>
<path d="M80.1415 0H74.4248V5.71747H80.1415V0Z" fill="#BA9AF6"/>
<path d="M74.4247 183.282H68.708V189H74.4247V183.282Z" fill="#7A46DB"/>
<path d="M74.4247 177.565H68.708V183.283H74.4247V177.565Z" fill="#7A46DB"/>
<path d="M74.4247 131.718H68.708V137.435H74.4247V131.718Z" fill="#7E48E4"/>
<path d="M74.4247 125.892H68.708V131.61H74.4247V125.892Z" fill="#A77CFA"/>
<path d="M74.4247 120.175H68.708V125.892H74.4247V120.175Z" fill="#A77CFA"/>
<path d="M74.4247 103.022H68.708V108.74H74.4247V103.022Z" fill="#A77CFA"/>
<path d="M74.4247 97.3048H68.708V103.022H74.4247V97.3048Z" fill="#8B59E9"/>
<path d="M74.4247 91.5873H68.708V97.3047H74.4247V91.5873Z" fill="#6C32D8"/>
<path d="M74.4247 85.8699H68.708V91.5873H74.4247V85.8699Z" fill="#D5CFF9"/>
<path d="M74.4247 80.1523H68.708V85.8698H74.4247V80.1523Z" fill="#D5CFF9"/>
<path d="M74.4247 74.4349H68.708V80.1524H74.4247V74.4349Z" fill="#D5CFF9"/>
<path d="M74.4247 68.7175H68.708V74.435H74.4247V68.7175Z" fill="#6C32D8"/>
<path d="M74.4247 63H68.708V68.7175H74.4247V63Z" fill="#A77CFA"/>
<path d="M74.4247 57.2825H68.708V62.9999H74.4247V57.2825Z" fill="#BA9AF6"/>
<path d="M74.4247 45.7397H68.708V51.5651H74.4247V45.7397Z" fill="#7E48E4"/>
<path d="M74.4247 40.0222H68.708V45.7397H74.4247V40.0222Z" fill="#998FD3"/>
<path d="M74.4247 34.3048H68.708V40.0223H74.4247V34.3048Z" fill="#D5CFF9"/>
<path d="M74.4247 28.5873H68.708V34.3047H74.4247V28.5873Z" fill="white"/>
<path d="M74.4247 22.8699H68.708V28.5873H74.4247V22.8699Z" fill="#D5CFF9"/>
<path d="M74.4247 17.1523H68.708V22.8698H74.4247V17.1523Z" fill="white"/>
<path d="M74.4247 11.4349H68.708V17.1524H74.4247V11.4349Z" fill="#E9E6FE"/>
<path d="M74.4247 5.71741H68.708V11.4349H74.4247V5.71741Z" fill="#E9E6FE"/>
<path d="M74.4247 0H68.708V5.71747H74.4247V0Z" fill="#BA9AF6"/>
<path d="M68.7084 183.282H62.9917V189H68.7084V183.282Z" fill="#8E64DE"/>
<path d="M68.7084 177.565H62.9917V183.283H68.7084V177.565Z" fill="#7A46DB"/>
<path d="M68.7084 154.587H62.9917V160.305H68.7084V154.587Z" fill="#8E64DE"/>
<path d="M68.7084 148.87H62.9917V154.587H68.7084V148.87Z" fill="#8E64DE"/>
<path d="M68.7084 131.718H62.9917V137.435H68.7084V131.718Z" fill="#D6C9EF"/>
<path d="M68.7084 120.175H62.9917V125.892H68.7084V120.175Z" fill="#D6C9EF"/>
<path d="M68.7084 103.022H62.9917V108.74H68.7084V103.022Z" fill="#A77CFA"/>
<path d="M68.7084 97.3048H62.9917V103.022H68.7084V97.3048Z" fill="#A77CFA"/>
<path d="M68.7084 91.5873H62.9917V97.3047H68.7084V91.5873Z" fill="#A77CFA"/>
<path d="M68.7084 85.8699H62.9917V91.5873H68.7084V85.8699Z" fill="#6C32D8"/>
<path d="M68.7084 80.1523H62.9917V85.8698H68.7084V80.1523Z" fill="#6C32D8"/>
<path d="M68.7084 74.4349H62.9917V80.1524H68.7084V74.4349Z" fill="#6C32D8"/>
<path d="M68.7084 68.7175H62.9917V74.435H68.7084V68.7175Z" fill="#A77CFA"/>
<path d="M68.7084 63H62.9917V68.7175H68.7084V63Z" fill="#A77CFA"/>
<path d="M68.7084 57.2825H62.9917V62.9999H68.7084V57.2825Z" fill="#BA9AF6"/>
<path d="M68.7084 51.5651H62.9917V57.2825H68.7084V51.5651Z" fill="#D6C9EF"/>
<path d="M68.7084 45.7397H62.9917V51.5651H68.7084V45.7397Z" fill="#7E48E4"/>
<path d="M68.7084 40.0222H62.9917V45.7397H68.7084V40.0222Z" fill="#998FD3"/>
<path d="M68.7084 34.3048H62.9917V40.0223H68.7084V34.3048Z" fill="#D5CFF9"/>
<path d="M68.7084 28.5873H62.9917V34.3047H68.7084V28.5873Z" fill="#D5CFF9"/>
<path d="M68.7084 22.8699H62.9917V28.5873H68.7084V22.8699Z" fill="#D5CFF9"/>
<path d="M68.7084 17.1523H62.9917V22.8698H68.7084V17.1523Z" fill="#E9E6FE"/>
<path d="M68.7084 11.4349H62.9917V17.1524H68.7084V11.4349Z" fill="white"/>
<path d="M68.7084 5.71741H62.9917V11.4349H68.7084V5.71741Z" fill="#E9E6FE"/>
<path d="M68.7084 0H62.9917V5.71747H68.7084V0Z" fill="#BA9AF6"/>
<path d="M62.9916 183.282H57.2749V189H62.9916V183.282Z" fill="#7A46DB"/>
<path d="M62.9916 177.565H57.2749V183.283H62.9916V177.565Z" fill="#7A46DB"/>
<path d="M62.9916 171.848H57.2749V177.565H62.9916V171.848Z" fill="#7E48E4"/>
<path d="M62.9916 166.13H57.2749V171.848H62.9916V166.13Z" fill="#7E48E4"/>
<path d="M62.9916 160.413H57.2749V166.13H62.9916V160.413Z" fill="#7E48E4"/>
<path d="M62.9916 154.587H57.2749V160.305H62.9916V154.587Z" fill="#8E64DE"/>
<path d="M62.9916 148.87H57.2749V154.587H62.9916V148.87Z" fill="#7A46DB"/>
<path d="M62.9916 143.152H57.2749V148.87H62.9916V143.152Z" fill="#7E48E4"/>
<path d="M62.9916 137.435H57.2749V143.26H62.9916V137.435Z" fill="#7E48E4"/>
<path d="M62.9916 131.718H57.2749V137.435H62.9916V131.718Z" fill="#8E64DE"/>
<path d="M62.9916 125.892H57.2749V131.61H62.9916V125.892Z" fill="#8351E3"/>
<path d="M62.9916 120.175H57.2749V125.892H62.9916V120.175Z" fill="#8E64DE"/>
<path d="M62.9916 103.022H57.2749V108.74H62.9916V103.022Z" fill="#A77CFA"/>
<path d="M62.9916 97.3048H57.2749V103.022H62.9916V97.3048Z" fill="#A77CFA"/>
<path d="M62.9916 91.5873H57.2749V97.3047H62.9916V91.5873Z" fill="#A77CFA"/>
<path d="M62.9916 85.8699H57.2749V91.5873H62.9916V85.8699Z" fill="#8351E3"/>
<path d="M62.9916 80.1523H57.2749V85.8698H62.9916V80.1523Z" fill="#A77CFA"/>
<path d="M62.9916 74.4349H57.2749V80.1524H62.9916V74.4349Z" fill="#8351E3"/>
<path d="M62.9916 68.7175H57.2749V74.435H62.9916V68.7175Z" fill="#A77CFA"/>
<path d="M62.9916 63H57.2749V68.7175H62.9916V63Z" fill="#A77CFA"/>
<path d="M62.9916 57.2825H57.2749V62.9999H62.9916V57.2825Z" fill="#BA9AF6"/>
<path d="M62.9916 45.7397H57.2749V51.5651H62.9916V45.7397Z" fill="#7E48E4"/>
<path d="M62.9916 40.0222H57.2749V45.7397H62.9916V40.0222Z" fill="#998FD3"/>
<path d="M62.9916 34.3048H57.2749V40.0223H62.9916V34.3048Z" fill="#D5CFF9"/>
<path d="M62.9916 28.5873H57.2749V34.3047H62.9916V28.5873Z" fill="#D5CFF9"/>
<path d="M62.9916 22.8699H57.2749V28.5873H62.9916V22.8699Z" fill="#E9E6FE"/>
<path d="M62.9916 17.1523H57.2749V22.8698H62.9916V17.1523Z" fill="white"/>
<path d="M62.9916 11.4349H57.2749V17.1524H62.9916V11.4349Z" fill="#E9E6FE"/>
<path d="M62.9916 5.71741H57.2749V11.4349H62.9916V5.71741Z" fill="#E9E6FE"/>
<path d="M62.9916 0H57.2749V5.71747H62.9916V0Z" fill="#BA9AF6"/>
<path d="M57.2753 183.282H51.5586V189H57.2753V183.282Z" fill="#7A46DB"/>
<path d="M57.2753 177.565H51.5586V183.283H57.2753V177.565Z" fill="#7A46DB"/>
<path d="M57.2753 171.848H51.5586V177.565H57.2753V171.848Z" fill="#A77CFA"/>
<path d="M57.2753 166.13H51.5586V171.848H57.2753V166.13Z" fill="#A77CFA"/>
<path d="M57.2753 160.413H51.5586V166.13H57.2753V160.413Z" fill="#7E48E4"/>
<path d="M57.2753 154.587H51.5586V160.305H57.2753V154.587Z" fill="#8E64DE"/>
<path d="M57.2753 148.87H51.5586V154.587H57.2753V148.87Z" fill="#7A46DB"/>
<path d="M57.2753 143.152H51.5586V148.87H57.2753V143.152Z" fill="#A77CFA"/>
<path d="M57.2753 137.435H51.5586V143.26H57.2753V137.435Z" fill="#7E48E4"/>
<path d="M57.2753 131.718H51.5586V137.435H57.2753V131.718Z" fill="#7A46DB"/>
<path d="M57.2753 125.892H51.5586V131.61H57.2753V125.892Z" fill="#7A46DB"/>
<path d="M57.2753 120.175H51.5586V125.892H57.2753V120.175Z" fill="#7A46DB"/>
<path d="M57.2753 97.3048H51.5586V103.022H57.2753V97.3048Z" fill="#A77CFA"/>
<path d="M57.2753 91.5873H51.5586V97.3047H57.2753V91.5873Z" fill="#A77CFA"/>
<path d="M57.2753 85.8699H51.5586V91.5873H57.2753V85.8699Z" fill="#8351E3"/>
<path d="M57.2753 80.1523H51.5586V85.8698H57.2753V80.1523Z" fill="#A77CFA"/>
<path d="M57.2753 74.4349H51.5586V80.1524H57.2753V74.4349Z" fill="#8351E3"/>
<path d="M57.2753 68.7175H51.5586V74.435H57.2753V68.7175Z" fill="#A77CFA"/>
<path d="M57.2753 63H51.5586V68.7175H57.2753V63Z" fill="#BA9AF6"/>
<path d="M57.2753 45.7397H51.5586V51.5651H57.2753V45.7397Z" fill="#7E48E4"/>
<path d="M57.2753 40.0222H51.5586V45.7397H57.2753V40.0222Z" fill="#A77CFA"/>
<path d="M57.2753 34.3048H51.5586V40.0223H57.2753V34.3048Z" fill="#E9E6FE"/>
<path d="M57.2753 28.5873H51.5586V34.3047H57.2753V28.5873Z" fill="#E9E6FE"/>
<path d="M57.2753 22.8699H51.5586V28.5873H57.2753V22.8699Z" fill="#E9E6FE"/>
<path d="M57.2753 17.1523H51.5586V22.8698H57.2753V17.1523Z" fill="#E9E6FE"/>
<path d="M57.2753 11.4349H51.5586V17.1524H57.2753V11.4349Z" fill="#E9E6FE"/>
<path d="M57.2753 5.71741H51.5586V11.4349H57.2753V5.71741Z" fill="#A77CFA"/>
<path d="M57.2753 0H51.5586V5.71747H57.2753V0Z" fill="#BA9AF6"/>
<path d="M51.558 183.282H45.8413V189H51.558V183.282Z" fill="#8E64DE"/>
<path d="M51.558 177.565H45.8413V183.283H51.558V177.565Z" fill="#7A46DB"/>
<path d="M51.558 154.587H45.8413V160.305H51.558V154.587Z" fill="#8E64DE"/>
<path d="M51.558 148.87H45.8413V154.587H51.558V148.87Z" fill="#8E64DE"/>
<path d="M51.558 68.7175H45.8413V74.435H51.558V68.7175Z" fill="#D6C9EF"/>
<path d="M51.558 63H45.8413V68.7175H51.558V63Z" fill="#D6C9EF"/>
<path d="M51.558 40.0222H45.8413V45.7397H51.558V40.0222Z" fill="#A77CFA"/>
<path d="M51.558 34.3048H45.8413V40.0223H51.558V34.3048Z" fill="#A77CFA"/>
<path d="M51.558 28.5873H45.8413V34.3047H51.558V28.5873Z" fill="#7A46DB"/>
<path d="M51.558 22.8699H45.8413V28.5873H51.558V22.8699Z" fill="#A77CFA"/>
<path d="M51.558 17.1523H45.8413V22.8698H51.558V17.1523Z" fill="#7A46DB"/>
<path d="M51.558 11.4349H45.8413V17.1524H51.558V11.4349Z" fill="#A77CFA"/>
<path d="M51.558 5.71741H45.8413V11.4349H51.558V5.71741Z" fill="#BA9AF6"/>
<path d="M45.8412 183.282H40.1245V189H45.8412V183.282Z" fill="#7A46DB"/>
<path d="M45.8412 177.565H40.1245V183.283H45.8412V177.565Z" fill="#7A46DB"/>
<path d="M45.8412 68.7175H40.1245V74.435H45.8412V68.7175Z" fill="#8E64DE"/>
<path d="M45.8412 63H40.1245V68.7175H45.8412V63Z" fill="#7A46DB"/>
<path d="M45.8412 57.2825H40.1245V62.9999H45.8412V57.2825Z" fill="#CBB1FC"/>
<path d="M45.8412 28.5873H40.1245V34.3047H45.8412V28.5873Z" fill="#8351E3"/>
<path d="M45.8412 22.8699H40.1245V28.5873H45.8412V22.8699Z" fill="#8351E3"/>
<path d="M45.8412 17.1523H40.1245V22.8698H45.8412V17.1523Z" fill="#8351E3"/>
<path d="M40.1249 183.282H34.4082V189H40.1249V183.282Z" fill="#7A46DB"/>
<path d="M40.1249 137.435H34.4082V143.26H40.1249V137.435Z" fill="#A77CFA"/>
<path d="M40.1249 131.718H34.4082V137.435H40.1249V131.718Z" fill="#A77CFA"/>
<path d="M40.1249 74.4349H34.4082V80.1524H40.1249V74.4349Z" fill="#8E64DE"/>
<path d="M40.1249 68.7175H34.4082V74.435H40.1249V68.7175Z" fill="#7A46DB"/>
<path d="M40.1249 63H34.4082V68.7175H40.1249V63Z" fill="#CBB1FC"/>
<path d="M40.1249 22.8699H34.4082V28.5873H40.1249V22.8699Z" fill="#8351E3"/>
<path d="M40.1249 17.1523H34.4082V22.8698H40.1249V17.1523Z" fill="#D6C9EF"/>
<path d="M40.1249 11.4349H34.4082V17.1524H40.1249V11.4349Z" fill="#D6C9EF"/>
<path d="M40.1249 5.71741H34.4082V11.4349H40.1249V5.71741Z" fill="#D6C9EF"/>
<path d="M40.1249 0H34.4082V5.71747H40.1249V0Z" fill="#D6C9EF"/>
<path d="M34.4081 143.152H28.6914V148.87H34.4081V143.152Z" fill="#A77CFA"/>
<path d="M34.4081 137.435H28.6914V143.26H34.4081V137.435Z" fill="#7E48E4"/>
<path d="M34.4081 131.718H28.6914V137.435H34.4081V131.718Z" fill="#7E48E4"/>
<path d="M34.4081 125.892H28.6914V131.61H34.4081V125.892Z" fill="#A77CFA"/>
<path d="M34.4081 80.1523H28.6914V85.8698H34.4081V80.1523Z" fill="#8E64DE"/>
<path d="M34.4081 74.4349H28.6914V80.1524H34.4081V74.4349Z" fill="#7A46DB"/>
<path d="M34.4081 68.7175H28.6914V74.435H34.4081V68.7175Z" fill="#CBB1FC"/>
<path d="M28.6918 125.892H22.9751V131.61H28.6918V125.892Z" fill="#A77CFA"/>
<path d="M28.6918 120.175H22.9751V125.892H28.6918V120.175Z" fill="#A77CFA"/>
<path d="M28.6918 114.457H22.9751V120.175H28.6918V114.457Z" fill="#D6C9EF"/>
<path d="M28.6918 108.74H22.9751V114.457H28.6918V108.74Z" fill="#8E64DE"/>
<path d="M28.6918 103.022H22.9751V108.74H28.6918V103.022Z" fill="#8E64DE"/>
<path d="M28.6918 97.3048H22.9751V103.022H28.6918V97.3048Z" fill="#8E64DE"/>
<path d="M28.6918 91.5873H22.9751V97.3047H28.6918V91.5873Z" fill="#8E64DE"/>
<path d="M28.6918 85.8699H22.9751V91.5873H28.6918V85.8699Z" fill="#D6C9EF"/>
<path d="M28.6918 80.1523H22.9751V85.8698H28.6918V80.1523Z" fill="#7A46DB"/>
<path d="M28.6918 74.4349H22.9751V80.1524H28.6918V74.4349Z" fill="#CBB1FC"/>
<path d="M22.8671 125.892H17.1504V131.61H22.8671V125.892Z" fill="#7E48E4"/>
<path d="M22.8671 120.175H17.1504V125.892H22.8671V120.175Z" fill="#A77CFA"/>
<path d="M22.8671 108.74H17.1504V114.457H22.8671V108.74Z" fill="#7A46DB"/>
<path d="M22.8671 103.022H17.1504V108.74H22.8671V103.022Z" fill="#8351E3"/>
<path d="M22.8671 97.3048H17.1504V103.022H22.8671V97.3048Z" fill="#8351E3"/>
<path d="M22.8671 91.5873H17.1504V97.3047H22.8671V91.5873Z" fill="#7A46DB"/>
<path d="M22.8671 85.8699H17.1504V91.5873H22.8671V85.8699Z" fill="#D6C9EF"/>
<path d="M17.1498 125.892H11.4331V131.61H17.1498V125.892Z" fill="#A77CFA"/>
<path d="M17.1498 120.175H11.4331V125.892H17.1498V120.175Z" fill="#BA9AF6"/>
<path d="M17.1498 114.457H11.4331V120.175H17.1498V114.457Z" fill="#D6C9EF"/>
<path d="M17.1498 108.74H11.4331V114.457H17.1498V108.74Z" fill="#CBB1FC"/>
<path d="M17.1498 103.022H11.4331V108.74H17.1498V103.022Z" fill="#CBB1FC"/>
<path d="M17.1498 97.3048H11.4331V103.022H17.1498V97.3048Z" fill="#CBB1FC"/>
<path d="M17.1498 91.5873H11.4331V97.3047H17.1498V91.5873Z" fill="#CBB1FC"/>
<path d="M17.1498 85.8699H11.4331V91.5873H17.1498V85.8699Z" fill="#CBB1FC"/>
<path d="M17.1498 80.1523H11.4331V85.8698H17.1498V80.1523Z" fill="#CBB1FC"/>
<path d="M11.4335 143.152H5.7168V148.87H11.4335V143.152Z" fill="#A77CFA"/>
<path d="M11.4335 137.435H5.7168V143.26H11.4335V137.435Z" fill="#7E48E4"/>
<path d="M11.4335 131.718H5.7168V137.435H11.4335V131.718Z" fill="#7E48E4"/>
<path d="M11.4335 125.892H5.7168V131.61H11.4335V125.892Z" fill="#BA9AF6"/>
<path d="M5.7167 137.435H0V143.26H5.7167V137.435Z" fill="#A77CFA"/>
<path d="M5.7167 131.718H0V137.435H5.7167V131.718Z" fill="#BA9AF6"/>
</svg>
