<svg width="24" height="24" fill="none" xmlns="http://www.w3.org/2000/svg"><path fill="#fff" fill-opacity=".01" d="M0 0h24v24H0z"/><path fill-rule="evenodd" clip-rule="evenodd" d="M11.643 17.965c-1.53 1.495-4.016 1.496-5.542.004a3.772 3.772 0 0 1 .002-5.412l7.147-6.985a2.316 2.316 0 0 1 3.233-.003c.893.873.895 2.282.004 3.153l-6.703 6.55a.653.653 0 0 1-.914-.008.619.619 0 0 1 0-.902L15.1 8.275a.94.94 0 0 0 0-1.353.995.995 0 0 0-1.384 0l-6.23 6.087a2.503 2.503 0 0 0 0 3.607 2.643 2.643 0 0 0 3.683.009l6.703-6.55a4.072 4.072 0 0 0-.003-5.859 4.306 4.306 0 0 0-6.002.003l-7.148 6.985a5.655 5.655 0 0 0 0 8.118c2.289 2.239 6.014 2.238 8.309-.005l6.686-6.533a.94.94 0 0 0 0-1.353.995.995 0 0 0-1.384 0l-6.686 6.534Z" fill="#E3E1EE"/></svg>