<svg width="30" height="30" fill="none" xmlns="http://www.w3.org/2000/svg"><path fill="#fff" fill-opacity=".01" d="M0 0h30v30H0z"/><path fill-rule="evenodd" clip-rule="evenodd" d="M15 27.45a12.448 12.448 0 1 1 0-24.895 12.448 12.448 0 0 1 0 24.896Z" fill="#7E48E4"/><path d="M15 19.359c1.12 0 1.866-.13 2.24-.392.373-.274.56-.641.56-1.102 0-.834-.392-1.394-1.176-1.68a28.096 28.096 0 0 0-2.558-.84 10.378 10.378 0 0 1-2.577-1.102c-.772-.486-1.158-1.332-1.158-2.54 0-1.12.361-1.991 1.083-2.614.722-.622 1.917-.933 3.585-.933h.56c1.295 0 2.303.336 3.025 1.008.722.672 1.083 1.705 1.083 3.1v.56H17.8v-.187c0-.56-.05-1.008-.15-1.344-.1-.349-.26-.617-.485-.803-.212-.187-.498-.312-.859-.374A7.834 7.834 0 0 0 15 10.023c-1.12 0-1.867.137-2.24.41a1.25 1.25 0 0 0-.56 1.084c0 .834.385 1.4 1.157 1.699.784.286 1.643.56 2.577.821a9.67 9.67 0 0 1 2.558 1.12c.784.474 1.176 1.314 1.176 2.521 0 1.12-.36 1.992-1.083 2.614-.722.623-1.917.934-3.585.934h-.56c-1.295 0-2.303-.336-3.025-1.008-.722-.672-1.083-1.706-1.083-3.1v-.56h1.867v.187c0 .56.05 1.014.15 1.363.1.336.255.597.466.784.225.187.517.311.878.373.361.063.797.094 1.307.094Z" fill="#fff"/><path fill="#fff" d="M14.204 20.462h1.591v2.092h-1.591z"/><path fill="#fff" d="M14.204 6.801h1.591v2.092h-1.591z"/></svg>