<svg width="30" height="30" fill="none" xmlns="http://www.w3.org/2000/svg"><path fill="#fff" fill-opacity=".01" d="M0 0h30v30H0z"/><path d="m9.773 15.7 5.303 5.304L20.38 15.7l-5.303-5.303L9.773 15.7V15.7Zm-1.768 1.769a2.495 2.495 0 0 1 0-3.535L13.31 8.63a2.494 2.494 0 0 1 3.535 0l5.304 5.304a2.495 2.495 0 0 1 0 3.535l-5.304 5.303a2.493 2.493 0 0 1-3.535 0L8.005 17.47Zm.12-1.219h13.75l-6.8 6.523-6.95-6.523ZM11.54 5.094a1.25 1.25 0 0 1 1.768 0l4.42 4.42-1.768 1.767-4.42-4.419a1.252 1.252 0 0 1 0-1.768ZM22.5 20s1.875 2.5 1.875 4.375c0 1.25-1.25 1.875-1.875 1.875s-1.875-.5-1.875-1.875C20.625 22.5 22.5 20 22.5 20Z" fill="#7E48E4"/></svg>