<svg width="24" height="24" fill="none" xmlns="http://www.w3.org/2000/svg"><path fill-rule="evenodd" clip-rule="evenodd" d="M12 24c6.627 0 12-5.373 12-12S18.627 0 12 0 0 5.373 0 12s5.373 12 12 12Z" fill="#fff"/><path fill-rule="evenodd" clip-rule="evenodd" d="M19.667 19h-3.014v-5.133c0-1.407-.535-2.193-1.648-2.193-1.212 0-1.845.818-1.845 2.193V19h-2.904V9.222h2.904v1.317s.873-1.615 2.948-1.615c2.074 0 3.559 1.266 3.559 3.885V19ZM6.79 7.942C5.8 7.942 5 7.134 5 6.138c0-.997.802-1.805 1.79-1.805.99 0 1.791.808 1.791 1.805 0 .996-.8 1.804-1.79 1.804ZM5.29 19H8.32V9.222H5.29V19Z" fill="#1C1B22"/></svg>