<svg width="30" height="30" fill="none" xmlns="http://www.w3.org/2000/svg"><path fill="#fff" fill-opacity=".01" d="M0 0h30v30H0z"/><path fill-rule="evenodd" clip-rule="evenodd" d="M6.25 22.489c0 .008 17.506.011 17.506.011-.007 0-.006-9.989-.006-9.989 0-.008-17.506-.011-17.506-.011.007 0 .006 9.989.006 9.989Zm-2.5-9.977A2.502 2.502 0 0 1 6.244 10h17.512a2.504 2.504 0 0 1 2.494 2.511v9.978A2.502 2.502 0 0 1 23.756 25H6.244a2.505 2.505 0 0 1-2.494-2.511v-9.977Z" fill="#7E48E4"/><path fill-rule="evenodd" clip-rule="evenodd" d="M8.75 10.419c0-.003 2.502-.003 2.502-.003-.002 0-.002-2.085-.002-2.085 0 .003-2.502.003-2.502.003.002 0 .002 2.085.002 2.085ZM6.25 8.33c0-1.15 1.123-2.081 2.498-2.081h2.505c1.38 0 2.497.936 2.497 2.081v2.088c0 1.15-1.123 2.081-2.498 2.081H8.748c-1.38 0-2.498-.936-2.498-2.081V8.33Zm12.5 2.088c0-.003 2.503-.003 2.503-.003-.003 0-.003-2.085-.003-2.085 0 .003-2.503.003-2.503.003.003 0 .003 2.085.003 2.085Zm-2.5-2.088c0-1.15 1.122-2.081 2.497-2.081h2.506c1.38 0 2.497.936 2.497 2.081v2.088c0 1.15-1.122 2.081-2.497 2.081h-2.506c-1.38 0-2.497-.936-2.497-2.081V8.33Z" fill="#7E48E4"/></svg>