<svg width="30" height="30" fill="none" xmlns="http://www.w3.org/2000/svg"><path fill="#fff" fill-opacity=".01" d="M0 0h30v30H0z"/><path fill-rule="evenodd" clip-rule="evenodd" d="M13.601 6.85 3.07 15.386c-.495.4-.728 1.195-.516 1.771l.123.34c.21.578.908 1.037 1.534 1.025l1.414-.025 7.577-.127 4.565-.079c.638-.012.985-.481.77-1.076L14.883 7.177c-.132-.36-.405-.55-.71-.55a.914.914 0 0 0-.572.223ZM6.225 19.94l2.193 6.023a1.25 1.25 0 1 0 2.348-.855l-1.923-5.285-2.618.117ZM23.364 8.552 19.84 9.835a1.25 1.25 0 1 0 .855 2.349L24.22 10.9a1.251 1.251 0 0 0-.856-2.35v.001Zm-2.24 4.807a1.257 1.257 0 0 0-.805.957 1.253 1.253 0 0 0 1.014 1.449l3.693.65a1.25 1.25 0 0 0 1.403-1.626l-.021-.06a1.247 1.247 0 0 0-.948-.775l-3.694-.652a1.218 1.218 0 0 0-.642.057Zm-.685-9.55-2.411 2.873a1.25 1.25 0 1 0 1.915 1.608l2.41-2.873a1.25 1.25 0 0 0-1.914-1.607Z" fill="#7E48E4"/></svg>