<svg width="30" height="30" fill="none" xmlns="http://www.w3.org/2000/svg"><path fill="#fff" fill-opacity=".01" d="M0 0h30v30H0z"/><path fill-rule="evenodd" clip-rule="evenodd" d="M6.247 14.391c0-3.797 3.927-6.887 8.753-6.887 4.826 0 8.753 3.09 8.753 6.887 0 3.799-3.927 6.888-8.753 6.888-4.826 0-8.753-3.089-8.753-6.888Zm18.55 9.714v-.003s-1.954-2.825-.958-3.895l-.046.026c1.533-1.605 2.457-3.634 2.457-5.842C26.25 9.214 21.204 5 15 5S3.75 9.213 3.75 14.391c0 5.179 5.046 9.393 11.25 9.393 1.775 0 3.45-.357 4.946-.97 1.254 1.277 2.859 1.965 4.05 2.148L24 24.96a.654.654 0 0 0 .205.041.644.644 0 0 0 .593-.895Z" fill="#7E48E4"/><path d="M20 11.25H10a1.25 1.25 0 1 0 0 2.5h10a1.25 1.25 0 1 0 0-2.5Z" fill="#7E48E4"/><path d="M13.75 15H10a1.25 1.25 0 1 0 0 2.5h3.75a1.25 1.25 0 1 0 0-2.5Z" fill="#7E48E4"/></svg>