<svg width="24" height="24" fill="none" xmlns="http://www.w3.org/2000/svg"><path d="M4.76 4.714c.932-.931 2.45-.878 3.29.116l1.826 2.16a2.186 2.186 0 0 1-.14 2.954l-.018.019a19.78 19.78 0 0 0 1.71 1.952l.122.122c.651.651 1.363 1.27 2.123 1.844a2.186 2.186 0 0 1 2.954-.14l2.16 1.825c.995.84 1.047 2.358.116 3.29L17.75 20.01c-.972.972-2.498 1.213-3.796.6a22.81 22.81 0 0 1-6.444-4.53l-.121-.121a21.76 21.76 0 0 1-4.407-6.315c-.604-1.31-.363-2.788.614-3.765L4.76 4.714Zm1.572 1.57L5.168 7.45c-.3.3-.361.786-.153 1.238a19.567 19.567 0 0 0 3.964 5.679l.12.12a20.555 20.555 0 0 0 5.784 4.078c.5.236.992.178 1.296-.127l1.153-1.153-2.124-1.794-1.31 1.31-.764-.53a23.086 23.086 0 0 1-3.176-2.641l-.12-.121a21.965 21.965 0 0 1-2.509-3.003l-.532-.765 1.33-1.33-1.795-2.125Z" fill="#E3E1EE"/></svg>