<svg width="30" height="30" fill="none" xmlns="http://www.w3.org/2000/svg"><path fill="#fff" fill-opacity=".01" d="M0 0h30v30H0z"/><path fill-rule="evenodd" clip-rule="evenodd" d="M10.158 12.5H5A2.493 2.493 0 0 0 2.5 15v4.662c0 1.638 2.343 2.567 5 2.788v-3.705A3.753 3.753 0 0 1 11.25 15h.443a5 5 0 0 1-1.535-2.5Zm9.685 0H25c1.381 0 2.5 1.106 2.5 2.5v4.662c0 1.638-2.343 2.567-5 2.788v-3.705A3.75 3.75 0 0 0 18.75 15h-.442a5 5 0 0 0 1.535-2.5Zm-7.384-5.558a3.75 3.75 0 1 0-2.454 4.093 4.999 4.999 0 0 1 2.454-4.093Zm7.537 4.093a3.75 3.75 0 1 0-2.453-4.095 4.992 4.992 0 0 1 2.453 4.095Z" fill="#7E48E4"/><path fill-rule="evenodd" clip-rule="evenodd" d="M8.75 18.75c0-1.381 1.109-2.5 2.5-2.5h7.5c1.381 0 2.5 1.106 2.5 2.5v4.662c0 3.784-12.5 3.784-12.5 0V18.75Z" fill="#7E48E4"/><path d="M15 15a3.75 3.75 0 1 0 0-7.5 3.75 3.75 0 0 0 0 7.5Z" fill="#7E48E4"/></svg>