<svg width="24" height="24" fill="none" xmlns="http://www.w3.org/2000/svg"><path d="M12 24c6.628 0 12-5.373 12-12S18.629 0 12 0C5.375 0 .002 5.373.002 12s5.373 12 12 12Z" fill="#7E48E4"/><path d="M19.35 8.624a5.722 5.722 0 0 1-1.647.451 2.876 2.876 0 0 0 1.261-1.587 5.742 5.742 0 0 1-1.821.696 2.869 2.869 0 0 0-4.888 2.617 8.142 8.142 0 0 1-5.912-2.997 2.868 2.868 0 0 0 .888 3.83 2.847 2.847 0 0 1-1.3-.36v.036c0 1.39.989 2.55 2.3 2.813a2.858 2.858 0 0 1-1.294.05 2.871 2.871 0 0 0 2.68 1.991 5.755 5.755 0 0 1-4.247 1.188 8.114 8.114 0 0 0 4.396 1.289c5.276 0 8.161-4.371 8.161-8.162 0-.124-.003-.248-.008-.37a5.816 5.816 0 0 0 1.431-1.485Z" fill="#fff"/></svg>