<svg xmlns="http://www.w3.org/2000/svg" viewBox="0 0 136 33" style="enable-background:new 0 0 136 33" xml:space="preserve"><path d="M136 32.4h-9.1c-.1 0-.2-.1-.2-.2V19.5c0-.5 0-.5.5-.5h1.8c.3 0 .4 0 .4.4v10.1c0 .5 0 .5.5.5H136v2.4z"/><path d="M16.1.3h15.6c.5 0 .5 0 .5.5v11c0 .5 0 .5-.5.5H11c-.1 0-.2.1-.2.2V20.1c0 .5 0 .5.5.5h5.6c.5 0 .5 0 .5.5v11c0 .5 0 .5-.5.5H.4c-.4-.2-.4-.2-.4-.6V.8C0 .3 0 .3.5.3h15.6z"/><path d="M84 9.1V1c0-.6 0-.5.5-.5h1.6c.4 0 .5 0 .4.4v12.5c0 .5 0 .5-.5.5h-1.6c-.3 0-.4-.1-.6-.3-2-2.8-4-5.5-6-8.2l-.2-.2h-.1v8.5c0 .2 0 .2-.2.2h-2.1c-.2 0-.2 0-.2-.2V1.1c0-.5 0-.5.5-.5h1.6c.3 0 .4.1.6.3 1.4 1.8 2.7 3.7 4.1 5.5.6.7 1.2 1.6 1.8 2.4.1.1.2.2.4.3-.1 0 0 0 0 0z"/><path d="M113.8.3c2.4.1 4.4 1 5.8 3.1 1.6 2.5 1.5 5.9-.3 8.2-1.3 1.6-3 2.4-5 2.6-1.3.1-2.5-.1-3.7-.7-2.2-1.1-3.4-2.9-3.7-5.3-.1-1-.1-1.9.2-2.9.9-3.2 3.6-4.7 6-4.9.2-.1.4-.1.7-.1zm-4.3 6.8c0 1.7.6 3.1 2.1 3.9.9.5 1.8.6 2.8.4 1.6-.3 2.7-1.2 3.2-2.7.4-1.1.4-2.2 0-3.3-.5-1.4-1.5-2.3-2.9-2.6-.4-.1-.8-.1-1.3-.1-1.9 0-3.5 1.3-3.9 3.2.1.5.1.9 0 1.2z"/><path d="M135.6 13.8H133c-.2 0-.4-.1-.5-.3-.7-1.3-1.5-2.6-2.2-3.8-.1-.1-.1-.2-.2-.3-.1-.1-.2-.1-.3-.1H128c-.2 0-.2.1-.2.2v4c0 .2 0 .3-.3.3h-2.1c-.2 0-.2 0-.3-.3V.9c0-.5 0-.5.5-.5h4.1c.6 0 1.1 0 1.7.1 1.2.2 2.2.7 2.9 1.7 1 1.4 1.1 3 .4 4.6-.3.8-1 1.3-1.7 1.7-.4.2-.4.2-.2.6.9 1.4 1.7 2.8 2.6 4.2.1.2.2.3.2.5zm-6.2-10.9h-1.1c-.3 0-.3 0-.3.3v3.3c0 .3 0 .4.3.4h2.1c.2 0 .4 0 .6-.1 1.3-.3 1.9-1.8 1.3-2.9-.4-.7-1-1-1.7-1h-1.2z"/><path d="M95.2 11.5h7.3c.2 0 .3 0 .3.3v1.9c0 .2 0 .3-.3.3H92.1c-.5 0-.5 0-.5-.5v-1.6c0-.2.1-.4.2-.6 1.3-1.5 2.7-2.9 4-4.4.8-.9 1.6-1.8 2.4-2.6l.9-.9c.1-.1.1-.2.2-.3-.1 0-.2-.1-.2-.1H92.2c-.5 0-.5 0-.5-.4V1c0-.4 0-.4.4-.4H102.2c.5 0 .5 0 .5.5v1.7c0 .2-.1.4-.2.6-1.9 2.1-3.8 4.3-5.7 6.4-.5.5-1 1.1-1.5 1.6l-.1.1z"/><path d="M60.4 7.1V.9c0-.5 0-.5.5-.5h8.5c.4 0 .4 0 .4.4v1.6c0 .4 0 .4-.4.4h-5.8c-.7 0-.7-.1-.7.7v1.9c0 .3 0 .4.4.4H68c.3 0 .3 0 .3.3v1.6c0 .3 0 .3-.3.3h-4.5c-.5 0-.5 0-.5.5v2.3c0 .4 0 .4.4.4h6.1c.5 0 .5 0 .5.5v1.5c0 .4 0 .4-.4.4h-8.9c-.1 0-.2-.1-.2-.2v-.3c-.1-1.9-.1-3.9-.1-6z"/><path d="M74.5 32.4H72c-.2 0-.4-.1-.4-.3-.2-.6-.5-1.3-.7-1.9-.1-.3-.1-.3-.5-.3h-5.1c-.3 0-.4 0-.5.3-.3.6-.5 1.3-.7 1.9-.1.2-.2.3-.4.3h-2.5c0-.2.1-.3.1-.4l2.1-5.1c1-2.5 2.1-5 3.1-7.5.2-.4.2-.4.5-.4h1.7c.4 0 .4 0 .5.4.7 1.6 1.3 3.3 2 4.9 1.1 2.6 2.1 5.1 3.2 7.7 0 .1 0 .2.1.4zm-6.7-10c-.1.1-.2.2-.2.3-.2.6-.4 1.1-.6 1.7-.3.9-.7 1.8-1.1 2.7 0 .1-.1.2-.1.4h3.5c.5 0 .5 0 .3-.5-.6-1.5-1.2-2.9-1.7-4.4 0 0 0-.1-.1-.2z"/><path d="M123.5 32.4H121c-.2 0-.3-.1-.4-.3-.2-.6-.5-1.3-.7-1.9-.1-.3-.1-.3-.5-.3h-5.1c-.3 0-.4 0-.5.3-.3.6-.5 1.3-.7 1.9-.1.2-.2.3-.5.3h-2.4c0-.1.1-.3.1-.4.8-2 1.7-4.1 2.5-6.1.9-2.1 1.8-4.3 2.7-6.4.2-.5.2-.4.7-.4h1.6c.4 0 .4 0 .5.4 1.3 3.1 2.6 6.2 3.8 9.3.4 1.1.9 2.2 1.3 3.3 0 0 .1.1.1.3zm-6.7-10c-.1.1-.1.3-.1.4-.2.5-.3 1-.5 1.4l-1.2 3c-.1.3-.1.4.2.4h3.3c.1 0 .2 0 .3-.1-.6-1.6-1.2-3.1-1.8-4.6 0-.1-.1-.3-.1-.4l-.1-.1z"/><path d="M58.7 22.3c-.1 0-.2.1-.3.1l-2.1.6c-.2.1-.3 0-.5-.2-1.6-1.7-4.6-1.8-6.2-.1-.4.4-.7.8-.8 1.3-.4 1.2-.5 2.4 0 3.7.5 1.2 1.3 2 2.5 2.3 1.7.5 3.2.1 4.5-1.1.2-.1.3-.3.4-.5.1-.1.2-.2.3-.1.8.2 1.5.4 2.3.6 0 0 .1 0 .1.1s-.1.2-.1.3c-.8 1.5-2 2.5-3.6 3.1-.8.3-1.6.5-2.4.4-3.8 0-6.3-2.5-6.9-5.6-.2-1.3-.2-2.6.3-3.8.7-1.9 1.9-3.3 3.8-4 2.6-1 5.1-.7 7.3 1.1.5.4 1 1 1.3 1.5 0 .1.1.1.1.3z"/><path d="M32.2 26.5V32c0 .5 0 .5-.5.5h-5.8c-.2 0-.3 0-.3-.3V21.1c0-.5 0-.5.5-.5h5.5c.5 0 .5 0 .5.5.1 1.8.1 3.6.1 5.4z"/><path d="M77.7 25.7v-6.2c0-.5 0-.5.5-.5h4.3c.6 0 1.3.1 1.9.2.5.1 1 .3 1.4.6 1 .6 1.5 1.5 1.7 2.6.1.6.1 1.2 0 1.9-.2 1.5-1.1 2.6-2.5 3.2-.6.3-1.3.4-2 .4h-2.4c-.3 0-.3 0-.3.3V31.9c0 .4 0 .4-.4.4h-1.8c-.4 0-.4 0-.4-.4v-6.2zm2.6-2.2v1.8c0 .2.1.2.2.3h2c.4 0 .8-.1 1.1-.2.8-.3 1.2-1 1.2-1.9 0-.9-.4-1.5-1.2-1.8-.3-.1-.7-.2-1-.2h-1.9c-.3 0-.4 0-.4.4v1.6z"/><path d="M50.8.5h5.3c.2 0 .2 0 .2.2v1.9c0 .2 0 .3-.3.3h-3.5c-.3 0-.3 0-.3.3v10c0 .5 0 .5-.5.5h-1.8c-.4 0-.4 0-.4-.4V3.1c0-.2-.1-.3-.3-.3H45.6c-.1 0-.2-.1-.2-.2V.8c0-.3 0-.4.4-.4h4.1c.2.1.6.1.9.1z"/><path d="M102.7 19h5.1c.4 0 .4 0 .4.4v1.7c0 .3 0 .3-.3.3h-3.4c-.4 0-.4 0-.4.4v10c0 .5 0 .5-.5.5h-1.8c-.3 0-.4 0-.4-.4v-10c0-.5 0-.5-.5-.5H97.5c-.2 0-.3 0-.3-.3v-1.9c0-.2 0-.2.3-.3h.3c1.6.1 3.3.1 4.9.1z"/><path d="M91.3 25.7v-6.2c0-.5 0-.5.5-.5h1.8c.4 0 .4 0 .4.4v12.5c0 .5 0 .5-.5.5h-1.7c-.4 0-.4 0-.4-.4-.1-2.1-.1-4.2-.1-6.3z"/></svg>