<svg width="42" height="39" fill="none" xmlns="http://www.w3.org/2000/svg"><path fill-rule="evenodd" clip-rule="evenodd" d="M24.351 2.86 41.45 32.473a3.855 3.855 0 0 1-4.632 5.56c-1.13-.4-2.986-2.484-4.492-3.422-8.11-5.068-17.23-4.55-25.11 1.72l5.949-10.304c5.213-2.436 10.426-2.443 15.639-.021L17.667 6.72a3.859 3.859 0 1 1 6.684-3.86Z" fill="#235DF4"/><mask id="a" style="mask-type:alpha" maskUnits="userSpaceOnUse" x="0" y="0" width="43" height="39"><path fill-rule="evenodd" clip-rule="evenodd" d="M9.17 17.601.562 32.506a3.858 3.858 0 1 0 6.684 3.858l8.606-14.905a3.859 3.859 0 1 0-6.684-3.858Z" fill="#235DF4"/><path fill-rule="evenodd" clip-rule="evenodd" d="m24.384 2.891 17.099 29.615a3.855 3.855 0 0 1-4.633 5.56c-1.129-.399-2.986-2.484-4.492-3.421-8.11-5.069-17.229-4.55-25.11 1.72l5.95-10.305c5.212-2.436 10.425-2.443 15.638-.021L17.701 6.752a3.859 3.859 0 1 1 6.683-3.86Z" fill="#235DF4"/></mask><g mask="url(#a)"><path d="M23.381 23.916H7.248v12.448h16.133V23.916Z" fill="url(#b)"/></g><path fill-rule="evenodd" clip-rule="evenodd" d="M9.136 17.569.53 32.474a3.858 3.858 0 1 0 6.684 3.858l8.606-14.905a3.86 3.86 0 1 0-6.684-3.858Z" fill="#235DF4"/><defs><linearGradient id="b" x1="10.319" y1="31.588" x2="21.907" y2="28.229" gradientUnits="userSpaceOnUse"><stop stop-color="#231772"/><stop offset=".02" stop-color="#231B7A"/><stop offset=".18" stop-color="#2337AE"/><stop offset=".32" stop-color="#234CD4"/><stop offset=".43" stop-color="#2358EB"/><stop offset=".5" stop-color="#235DF4"/></linearGradient></defs></svg>