<svg xmlns="http://www.w3.org/2000/svg" viewBox="0 0 84 39" style="enable-background:new 0 0 84 39" xml:space="preserve"><path d="M.6 5.6C.5 6.2.3 7.9.1 9.3c-.1 1.8-.1 6.3.1 7.2v.2h1V5.5H1c-.3 0-.4 0-.4.1zm1.7.2v10.9h3.4V5.5H2.3v.3zm10 5.3v5.6h1.9c1.5 0 1.9 0 1.9-.1V5.5h-3.8v5.6zm4.9 0v5.6h6.1c.1 0 .1-.8 0-4.3 0-4.1 0-4.3-.1-4.5-.1-.1-.8-.6-1.8-1.3l-1.7-1.1h-2.4l-.1 5.6zM23 5.8c2.5 1.4 5.3 2.5 8.8 3.3 7.2 1.8 14.3 1.7 21.4-.4 2.3-.7 4-1.3 5.8-2.2.9-.4 1.9-1 1.9-1H22.7l.3.3zm40.7-.1C61.6 7 60.1 7.9 60 8.1c-.1.1-.1.3-.1 3.8V16.8h6.2V5.6h-2l-.4.1zm3.3 5.2v5.8h4V5.5h-4v5.4zm10.7.2v5.6h3.6V5.5h-3.6v5.6zm4.7 0v5.6h1.4v-.4c.1-1.2.1-2.3.1-3.7 0-2.2-.1-4-.4-6-.1-.5-.1-1-.1-1h-1v5.5zm-58.1 1.5v4.1h6.2v-2.9c0-2.9 0-3-.1-3.1-.1-.2-.2-.2-3.9-1.4-1.1-.3-2-.6-2-.7-.2-.1-.2.7-.2 4zm31.7-3c-1.6.5-3 1-3 1s-.1.1-.1.2c-.1.2-.1.3-.1 3.1v2.9H58.5c.1 0 .2-.1.3-.3l.2-.2V8.7c-.1-.1-1.4.3-3 .9zm-24.6 4.2v2.9h6v-5h-.2c-.1 0-.6-.1-1-.2-2.9-.5-4.8-.8-4.8-.8v3.1zm17.3-2.5c-1.6.2-2.9.4-3 .4-.1 0-.1.5-.1 2.5v2.5h6.2v-2.9c0-2.3 0-2.9-.1-2.9 0 0-1.3.2-3 .4zm-10.1.6v4.8h6v-4.8h-3c-1.6-.1-3-.1-3 0zm39.1 14.2v5.8h-6.4V20.3h-59v11.6H5.8V20.3H.7v.1c0 .1.1.6.3 1.2.8 3.7 2.3 7.7 4.3 11l.5.8h72.5l.4-.7c1.8-3.2 3.1-6.6 4-10.1.2-.8.5-2.2.5-2.3 0-.1-.5-.1-2.8-.1h-2.8v5.9zm-55.3-1.8c.4.2.9.6 1.1 1 .2.3.2.4.2 1 0 .5 0 .6-.1.9-.1.2-.3.4-.4.6l-.3.2.2.2c.1.1.3.3.4.5.5 1.1.1 2.4-1 2.9l-.4.2h-5.2V24.1h5.2l.3.2zm8.5-.1c.9.4 1.4 1.2 1.3 2.2-.1 1.1-.9 1.9-2 2h-.3l1.4 1.7c.8.9 1.4 1.7 1.4 1.7h-1.2L30 30.1l-1.5-1.7h-2.2v3.4h-1V24.1h2.6c2.7 0 2.8 0 3 .1zm4.8 1.1c1.3 2.2 1.9 3 1.9 3.1 0 0 .1 0 .1-.1s.5-.8 1-1.7c.5-.8 1.1-1.8 1.3-2l.3-.5h1s-.4.7-.9 1.4c-.5.8-1.2 2-1.6 2.7l-.8 1.3v2.4h-1v-2.4l-1.6-2.6c-.9-1.5-1.6-2.7-1.6-2.7H35l.7 1.1zM47 24.2c1.5.3 2.7 1.4 3.1 2.9.1.5.1 1.5 0 1.9-.4 1.3-1.4 2.3-2.7 2.8-.4.1-.5.1-2.3.1h-1.9v-7.8H45c1 0 1.8 0 2 .1zm9.3 0c.5.1 1.3.5 1.7.8l.3.2-.3.3-.3.3-.3-.2c-.6-.4-1.2-.7-1.9-.7-.8 0-1.6.3-2.1.9-.6.6-.9 1.2-.9 2.1 0 .6.1 1 .4 1.4.4.7 1.2 1.3 1.9 1.4.9.2 1.9 0 2.5-.5l.2-.2v-1.6h-2.6v-.9h3.6v4.4h-1v-.4s-.2 0-.4.1c-.5.2-1 .3-1.6.3-1.7 0-3.3-1.1-3.8-2.8-.1-.2-.1-.6-.1-.9 0-.7.1-1.3.4-2 .2-.4.3-.6.7-1 .8-.8 1.7-1.1 2.8-1.1.2 0 .6 0 .8.1zm10.8.3c0 .4 0 .4-.1.4h-5.8v2.4H65v1.1h-3.8v2.4h6v.8h-6.8V23.9c0-.1.8-.1 3.5-.1h3.4v.7zm-49.3 1.8v1.3h2c2.3 0 2.3 0 2.7-.4.4-.4.4-.9.2-1.4-.2-.4-.5-.6-.9-.7H17.9v1.2zm8.6-1.3v2.5h2c1.6 0 2.1 0 2.2-.1 1-.4 1.1-1.8.1-2.3-.3-.1-.5-.1-2.3-.1h-2zm17.9.1V31h1.2c.7 0 1.3 0 1.5-.1.5-.1 1-.4 1.4-.8 1.6-1.6 1-4.2-1.2-4.9-.4-.2-.5-.2-1.6-.2-1 0-1.3 0-1.3.1zm-26.5 4.6V31h1.8c1.1 0 2 0 2.1-.1 1-.2 1.3-1.3.7-2-.4-.4-.4-.4-2.7-.4h-2v1.2z" style="fill-rule:evenodd;clip-rule:evenodd;fill:#1d2538"/></svg>