<svg version="1.1" id="Слой_1" xmlns="http://www.w3.org/2000/svg" x="0" y="0" viewBox="0 0 96 39" style="enable-background:new 0 0 96 39" xml:space="preserve"><style>.st0{fill:#0f0e25}</style><path class="st0" d="M0 19.5c0 9.4 7.8 17 17.5 17S35 28.9 35 19.5s-7.8-17-17.5-17S0 10.1 0 19.5z"/><path d="M11 24.4c0 1.7 1.5 3.2 3.2 3.2s3.2-1.4 3.2-3.2v-9.7c0-1.7-1.5-3.2-3.2-3.2S11 12.9 11 14.6v9.8z" style="fill:#fff"/><path d="M27.5 14.6c0 1.7-1.5 3.2-3.2 3.2H11v-3.2c0-1.7 1.5-3.2 3.2-3.2h10c1.8.1 3.3 1.5 3.3 3.2z" style="fill-rule:evenodd;clip-rule:evenodd;fill:#fff"/><radialGradient id="SVGID_1_" cx="29.357" cy="40.516" r="1" gradientTransform="matrix(-20.64 0 0 129.2 629.92 -5243.433)" gradientUnits="userSpaceOnUse"><stop offset=".146" style="stop-color:#fe84fc"/><stop offset=".87" style="stop-color:#2ed1ff"/></radialGradient><path d="M24 17.8V21c0 1.7-1.5 3.2-3.2 3.2h-10c-1.8 0-3.2-1.4-3.2-3.2 0-1.7 1.5-3.2 3.2-3.2H24z" style="fill-rule:evenodd;clip-rule:evenodd;fill:url(#SVGID_1_)"/><path class="st0" d="M53.3 8.3c2.2 0 3.9.3 5.7.8v21.6h-4.6V12.4h-1.1c-1.7 0-2.9.8-2.9 2.6h2.2v4.5h-2.2v11.1h-4.6V19.5h-2.1V15h2.1c0-4.4 2.4-6.7 7.5-6.7zM73 15.1h4.8v15.1H73v-1.4c-.9 1.1-2.4 1.8-4.5 1.8-3.2 0-5.9-2.2-5.9-6.3V15h4.8v8.6c0 1.9 1.2 2.8 2.8 2.8 1.7 0 3-1 3-3.1v-8.2zm23 15.3h-5.4l-2.9-4-2.9 4h-5.4l5.7-7.8-5.5-7.5H85l2.7 3.8 2.7-3.8h5.4l-5.5 7.5 5.7 7.8z"/></svg>