<svg version="1.1" id="Слой_1" xmlns="http://www.w3.org/2000/svg" x="0" y="0" viewBox="0 0 138 39" style="enable-background:new 0 0 138 39" xml:space="preserve"><style>.st0{fill:#0d106e;stroke:#ee67ba;stroke-width:1.829660e-03;stroke-linecap:round;stroke-linejoin:round;stroke-miterlimit:1.5}</style><path class="st0" d="M137.9 5.6h-21.3v26.9h21.3V5.6z"/><path class="st0" d="M116.5 5.6H25.4v26.9h91.1V5.6z"/><path class="st0" d="M25.4 5.6H.1v26.9h25.3V5.6z"/><path d="m3.7 19.1 9.1-9.1 9.1 9.1-9.1 9.1-9.1-9.1zM7 16.4c-.4.4-1.2 1.5-1.2 2.7 0 1.2.8 2.3 1.2 2.7l2 2c.8-.8 2.1-1.8 3.6-1.9-.4.4-1.2 1.5-1.2 2.7 0 1.2.8 2.3 1.2 2.7l.2.2.2-.2c.4-.4 1.2-1.5 1.2-2.7 0-1.2-.8-2.3-1.2-2.7 1.5.1 2.8 1.1 3.6 1.9l2-2c.4-.5 1.2-1.5 1.2-2.7 0-1.2-.8-2.2-1.2-2.7l-2-2c-.8.8-2.1 1.8-3.6 1.9.4-.4 1.2-1.5 1.2-2.7 0-1.2-.8-2.3-1.2-2.7l-.2-.2-.2.2c-.4.4-1.2 1.5-1.2 2.7 0 1.2.8 2.3 1.2 2.7-1.5-.1-2.8-1.1-3.6-1.9l-2 2zm83.6 4.5-.3-.6c2.5-.3 3.8-1.6 3.8-3.8 0-2.6-1.7-3.8-5.2-3.8h-7.5l.2 8.1-.1 5.2h1.8l-.2-5.6h5.7l.7 1.1 2.4 4.5 2-.1-3.3-5zm16.2-1.3-3.2-6.9h-2l-3 6.4-3.4 6.9h2l1.5-3.4h8.2l1.5 3.4h1.7l-3.3-6.4zM57 26l-.2-5.1 2.2-3.2 4-4.9h-2.5L58 16.7l-1.9 2.5-1.9-2.4-2.7-4h-2.3l3.9 4.9 2.2 3.2-.1 5.1H57zm7.9 0H71c4.5 0 7.7-2 7.7-6.8 0-4.4-3.1-6.4-7.2-6.4H64.9l.2 8.1-.2 5.1zm-29.6 0-.2-5.1V20h10.8v.9l-.2 5.1h1.8l-.2-5.1.2-8.1h-1.8l.1 5.4H35.2l.1-5.4h-1.8l.2 8.1-.1 5.1H35.3zm36.2-11.5c3.8 0 5.9 1.7 5.9 4.7 0 3.3-2.2 5.1-6.2 5.1h-4.7l-.1-3.3.2-6.4h4.9zm54.7 7v-4.8h-.5v-.5h-.5v-.5h-3.9v6.7h3.9V22h.5v-.5h.5zm2.4-3.4h.5v.5h.5v1h-.5v.4h-.5v1h-.5v1.4h1v-1h.5v-1h.5V20h1v.5h.5v1h.5v1h1V21h-.5v-1h-.6v-.5h-.5v-1h.5V18h.5v-1h.5v-1.4h-1v1h-.5v1h-.5v.5h-1v-.5h-.5v-1h-.5v-1h-1V17h.5v1.1zM7.4 16.4c2.4.1 4.4 2.7 4.4 2.7s-1.9 2.6-4.4 2.7c.4-.4 1.2-1.5 1.2-2.7s-.8-2.3-1.2-2.7zm10.8 0c-.4.4-1.2 1.5-1.2 2.7s.8 2.3 1.2 2.7c-2.4-.1-4.4-2.7-4.4-2.7s1.9-2.6 4.4-2.7zm106.6.7h.5V21h-.5v.5h-2.4v-4.8h2.4v.4zm-18.7 3.8h-6.7l.4-1 2.8-5.6 3.1 5.9.4.7zM93 16.6c0 .8-.3 1.3-.9 1.7-.6.3-1.8.5-3.4.5h-5.4l.1-4.3h5.3c1.7 0 2.9.1 3.5.4.5.3.8.9.8 1.7z" style="fill-rule:evenodd;clip-rule:evenodd;fill:#52b2ed"/></svg>