<svg width="620" height="620" fill="none" xmlns="http://www.w3.org/2000/svg"><path fill-rule="evenodd" clip-rule="evenodd" d="M0 310v310h620V0H0v310Zm377.929-162.621c26.348 6.739 39.791 21.411 49.144 53.645 10.887 37.516 21.743 131.18 20.626 177.951-.547 22.895-.907 25.477-4.697 33.629-10.191 21.923-33.464 34.838-78.752 43.701-28.503 5.578-151.922 21.436-153.724 19.751-.577-.539-1.543-6.085-2.149-12.324l-1.099-11.343 23.074-22.83c34.638-34.273 72.73-63.502 97.248-74.62 5.421-2.457 14.597-5.567 20.39-6.911 20.533-4.762 35.339-16.227 47.585-36.848l6.65-11.198-.073-17.079c-.04-9.393-.91-19.93-1.93-23.414l-1.856-6.338-31.898.138-31.896.136-4.149-4.799c-2.282-2.639-8.628-10.207-14.102-16.816-5.475-6.611-12.64-13.796-15.925-15.971-5.657-3.743-6.728-3.901-20.272-2.991-7.865.527-19.879 2.399-26.699 4.16-19.753 5.101-48.179 19.834-64.908 33.641-2.45 2.023-4.687 3.449-4.968 3.167-1.359-1.36-11.546-91.613-10.443-92.543 1.46-1.232 118.241-15.368 141.981-17.187 21.883-1.675 48.965-.257 62.842 3.293Zm-67.831 101.745 5.068 5.772-3.745 1.048c-2.061.576-7.409 1.116-11.884 1.201-7.381.141-8.137-.16-8.137-3.233 0-4.483 5.862-10.562 10.185-10.562 2.035 0 5.518 2.362 8.513 5.774Zm-53.376 50.262c-16.064 62.951-18.583 71.2-23.532 77.083-3.85 4.575-34.719 28.751-35.498 27.8-.225-.271-.816-4.679-1.315-9.794l-.905-9.3 10.06-6.89c17.363-11.893 22.394-18.566 31.378-41.617 4.385-11.253 13.382-36.097 19.993-55.208 6.612-19.112 12.244-34.528 12.515-34.257.273.272-5.442 23.752-12.696 52.183Z" fill="url(#a)"/><defs><linearGradient id="a" x1="31.5" y1="23.5" x2="620" y2="620" gradientUnits="userSpaceOnUse"><stop stop-color="#3E1072"/><stop offset=".427" stop-color="#321647"/><stop offset=".995" stop-color="#4C135A"/></linearGradient></defs></svg>