<svg width="109" height="39" fill="none" xmlns="http://www.w3.org/2000/svg"><path d="M23.039 22.139c-.117.229-.291.401-.466.458-.117.058-.233.058-.292.058h-9.267c1.282 2.638 4.138 4.416 7.344 4.186 3.322-.229 6.178-2.695 6.82-5.964.174-1.032.174-2.007 0-2.925h-7.636l3.264 3.212c.058.057.116.172.175.286.058.115.058.23.058.287.058.23 0 .344 0 .402Z" fill="url(#a)"/><path d="M28.985 18.01c.059.458.117.974.117 1.49 0 5.047-4.138 9.12-9.268 9.12-4.196 0-7.752-2.754-8.918-6.539 0-.057 0-.057-.058-.115a8.862 8.862 0 0 1 .058-5.219c1.224-3.498 4.372-6.021 8.102-6.366a9.424 9.424 0 0 1 7.403 2.696c.524.573.175 1.491-.641 1.491a.943.943 0 0 1-.642-.287c-1.457-1.49-3.613-2.351-6.003-2.179-3.264.287-6.062 2.753-6.703 5.965-.175 1.032-.175 2.007 0 2.924h7.635l-3.264-3.211c-.058-.058-.116-.172-.175-.287-.058-.115-.058-.23-.058-.287 0-.114 0-.23.058-.287.117-.229.234-.401.467-.458.116-.058.233-.058.291-.058H31.26c-1.4-5.047-6.062-8.66-11.541-8.602-6.237.057-11.425 4.99-11.774 11.068-.35 6.768 5.07 12.331 11.89 12.331 6.587 0 11.89-5.219 11.89-11.7 0-.516-.057-.975-.116-1.49h-2.623Z" fill="url(#b)"/><path d="m41.5 16.403-.933.517c-.175-.287-.35-.46-.467-.574-.175-.115-.35-.172-.64-.172-.292 0-.584.115-.759.287-.233.172-.291.401-.291.63 0 .345.292.631.816.86l.758.287c.64.23 1.049.517 1.34.918.292.344.408.803.408 1.32 0 .687-.233 1.261-.7 1.72-.465.459-1.048.688-1.748.688-.64 0-1.224-.172-1.632-.573a2.473 2.473 0 0 1-.758-1.606l1.166-.23c.059.46.117.746.292.918.233.344.583.459 1.049.459.35 0 .641-.115.874-.344.233-.23.35-.517.35-.918 0-.172 0-.287-.058-.401l-.175-.345c-.059-.114-.175-.172-.35-.286-.117-.115-.291-.172-.466-.23l-.7-.287c-1.049-.401-1.573-1.032-1.573-1.892 0-.574.233-1.033.64-1.377.409-.401.992-.573 1.633-.573.758-.057 1.399.344 1.923 1.204Z" fill="#414042"/><path d="M44.706 18.01v2.695c0 .803.291 1.147.932 1.147.642 0 .933-.402.933-1.147v-2.696h1.107v2.696c0 .401-.058.688-.116.975-.117.23-.233.458-.466.63-.35.345-.816.46-1.4.46-.582 0-1.049-.173-1.398-.46-.233-.172-.408-.4-.467-.63-.116-.23-.116-.517-.116-.975v-2.696h.99Z" fill="#414042"/><path d="M50.883 14.568v3.957c.466-.458.932-.688 1.515-.688.641 0 1.166.23 1.574.688.408.46.641 1.033.641 1.778 0 .746-.233 1.32-.641 1.778-.408.459-.991.688-1.632.688-.525 0-1.049-.229-1.457-.63v.573h-1.108v-8.144h1.108Zm2.623 5.793c0-.46-.117-.803-.35-1.09a1.223 1.223 0 0 0-.933-.459c-.408 0-.758.115-.99.402-.234.286-.35.63-.35 1.09 0 .458.116.802.35 1.089.232.287.582.401.99.401.408 0 .7-.114.933-.401.233-.23.35-.574.35-1.032Z" fill="#414042"/><path d="M64.407 22.827H62.95l-.583-.574c-.642.401-1.341.574-2.099.574-.99 0-1.865-.345-2.681-.975-.816-.746-1.282-1.664-1.282-2.81 0-1.09.408-2.065 1.224-2.81.757-.746 1.69-1.09 2.74-1.09.932 0 1.806.344 2.564.974.933.746 1.34 1.778 1.34 2.983 0 .975-.35 1.835-1.107 2.58l1.34 1.148Zm-3.09-3.097 1.108 1.09c.466-.517.7-1.09.7-1.836 0-.803-.292-1.491-.816-2.007a2.8 2.8 0 0 0-1.982-.803c-.816 0-1.457.287-1.982.803-.525.516-.758 1.204-.758 2.007 0 .803.292 1.434.816 1.95.583.516 1.224.803 1.924.803a2.74 2.74 0 0 0 1.34-.344l-1.748-1.72h1.399v.057Z" fill="#414042"/><path d="M67.321 18.01v2.695c0 .803.291 1.147.932 1.147.642 0 .933-.402.933-1.147v-2.696h1.108v2.696c0 .401-.059.688-.117.975-.117.23-.233.458-.466.63-.35.345-.816.46-1.4.46-.582 0-1.049-.173-1.398-.46-.233-.172-.408-.4-.466-.63-.117-.23-.117-.517-.117-.975v-2.696h.991Z" fill="#414042"/><path d="M76.764 20.59h-3.38c.057.401.174.688.407.918.233.229.525.344.874.344.292 0 .525-.058.7-.172.175-.115.35-.345.583-.689l.932.517c-.116.229-.291.458-.466.63-.175.172-.35.287-.525.402-.175.115-.407.172-.582.23-.234.057-.467.057-.7.057-.7 0-1.282-.23-1.69-.689-.408-.458-.642-1.032-.642-1.778 0-.745.234-1.319.642-1.777.408-.46.99-.689 1.69-.689s1.282.23 1.632.631c.408.46.583 1.033.583 1.835l-.058.23Zm-1.108-.86c-.175-.574-.524-.86-1.107-.86-.117 0-.233 0-.35.057a1.28 1.28 0 0 0-.292.172c-.116.057-.174.172-.233.287l-.174.344h2.156Z" fill="#414042"/><path d="M78.744 18.01h1.108v.4c.174-.229.408-.343.524-.4.175-.058.35-.116.583-.116.292 0 .583.115.933.287l-.525.975c-.233-.172-.408-.23-.583-.23-.583 0-.874.46-.874 1.32v2.466h-1.107v-4.703h-.059Z" fill="#414042"/><path d="M85.157 21.794 83 18.01h1.282l1.457 2.696 1.341-2.696h1.224l-3.788 7.226h-1.283l1.924-3.44Z" fill="#414042"/><defs><radialGradient id="a" cx="0" cy="0" r="1" gradientUnits="userSpaceOnUse" gradientTransform="matrix(26.4924 0 0 26.0671 9.862 7.657)"><stop offset=".475" stop-color="#4388DD"/><stop offset=".999" stop-color="#FF4581"/></radialGradient><radialGradient id="b" cx="0" cy="0" r="1" gradientUnits="userSpaceOnUse" gradientTransform="matrix(26.4924 0 0 26.0671 9.863 7.656)"><stop offset=".475" stop-color="#4388DD"/><stop offset=".999" stop-color="#FF4581"/></radialGradient></defs></svg>