<?xml version="1.0" standalone="no"?>
<!DOCTYPE svg PUBLIC "-//W3C//DTD SVG 20010904//EN"
 "http://www.w3.org/TR/2001/REC-SVG-20010904/DTD/svg10.dtd">
<svg version="1.0" xmlns="http://www.w3.org/2000/svg"
 width="700.000000pt" height="700.000000pt" viewBox="0 0 700.000000 700.000000"
 preserveAspectRatio="xMidYMid meet">
<metadata>
Created by potrace 1.14, written by Peter Selinger 2001-2017
</metadata>
<g transform="translate(0.000000,700.000000) scale(0.100000,-0.100000)"
fill="#000000" stroke="none">
<path d="M26 6984 c-14 -14 -16 -343 -16 -3459 0 -2484 3 -3451 11 -3468 6
-13 26 -32 45 -41 32 -15 189 -16 1859 -16 1644 0 1825 2 1839 16 12 11 16 36
16 92 4 634 0 2448 -5 2462 -4 11 -16 22 -28 25 -12 3 -327 7 -700 8 -590 2
-679 4 -687 17 -6 9 -10 361 -10 879 0 793 1 866 16 883 17 17 96 18 2305 18
2066 0 2289 2 2303 16 14 14 16 144 16 1282 0 781 -4 1273 -10 1282 -8 13
-407 15 -3474 18 -3137 2 -3466 1 -3480 -14z"/>
<path d="M5607 2602 c-15 -2 -32 -12 -37 -22 -8 -16 -13 -1192 -10 -2427 0
-76 4 -105 15 -116 12 -13 109 -15 699 -15 647 1 686 2 702 19 15 16 16 110
11 1106 -3 598 -8 1138 -11 1198 -12 228 -13 237 -27 246 -8 5 -38 9 -66 9
-184 3 -1253 4 -1276 2z"/>
</g>
</svg>
